<svg width="51" height="62" viewBox="0 0 51 62" fill="none" xmlns="http://www.w3.org/2000/svg">
<path opacity="0.8" d="M12.75 0C9.24375 0 6.12 1.46625 3.76125 3.76125C1.46625 6.05625 0 9.18 0 12.75C0 16.2563 1.46625 19.38 3.76125 21.7388L25.5 43.4775L47.2387 21.7388C49.5337 19.4438 51 16.32 51 12.75C51 9.24375 49.5337 6.12 47.2387 3.76125C44.9437 1.46625 41.82 0 38.25 0C34.7437 0 31.62 1.46625 29.2613 3.76125C26.9663 6.05625 25.5 9.18 25.5 12.75C25.5 9.24375 24.0338 6.12 21.7388 3.76125C19.4438 1.46625 16.32 0 12.75 0Z" fill="#DB6C2D"/>
<path d="M45 31C45 36.5228 40.5228 41 35 41C29.4772 41 25 36.5228 25 31C25 25.4772 29.4772 21 35 21C40.5228 21 45 25.4772 45 31Z" fill="#CAC4C0"/>
<path d="M34.1205 26V30.1205H30V32.8675H34.1205V36.988H36.8675V32.8675H40.988V30.1205H36.8675V26H34.1205Z" fill="#1F1309"/>
</svg>
